HIERARCHY
ROOT pelvis
{
  OFFSET 8.31499 86.4064 -18.4014
  CHANNELS 6 Xposition Yposition Zposition Zrotation Xrotation Yrotation
  JOINT lfemur
  {
    OFFSET 0 7.45202 0
    CHANNELS 3 Zrotation Xrotation Yrotation
    JOINT ltibia
    {
      OFFSET 0 0 -44.0273
      CHANNELS 3 Zrotation Xrotation Yrotation
      JOINT lfoot
      {
        OFFSET 0 0 -38.0988
        CHANNELS 3 Zrotation Xrotation Yrotation
        JOINT ltoes
        {
          OFFSET 17.1303 0 0
          CHANNELS 3 Zrotation Xrotation Yrotation
          End Site
          {
            OFFSET 0 0 0
          }
        }
      }
    }
  }
  JOINT rfemur
  {
    OFFSET 0 -7.45202 0
    CHANNELS 3 Zrotation Xrotation Yrotation
    JOINT rtibia
    {
      OFFSET 0 0 -44.0273
      CHANNELS 3 Zrotation Xrotation Yrotation
      JOINT rfoot
      {
        OFFSET 0 0 -38.0988
        CHANNELS 3 Zrotation Xrotation Yrotation
        JOINT rtoes
        {
          OFFSET 17.1303 0 0
          CHANNELS 3 Zrotation Xrotation Yrotation
          End Site
          {
            OFFSET 0 0 0
          }
        }
      }
    }
  }
  JOINT thorax
  {
    OFFSET -5.57565 0.683859 13.6957
    CHANNELS 3 Zrotation Xrotation Yrotation
    JOINT head
    {
      OFFSET -1.34472 0.735804 32.5388
      CHANNELS 3 Zrotation Xrotation Yrotation
      End Site
      {
        OFFSET 0 0 0
      }
    }
    JOINT lclavicle
    {
      OFFSET 0 0 25.2555
      CHANNELS 3 Zrotation Xrotation Yrotation
      JOINT lhumerus
      {
        OFFSET 0 15.7019 3.447
        CHANNELS 3 Zrotation Xrotation Yrotation
        JOINT lradius
        {
          OFFSET 0 0 -26.0247
          CHANNELS 3 Zrotation Xrotation Yrotation
          JOINT lhand
          {
            OFFSET 0 0 -20.7467
            CHANNELS 3 Zrotation Xrotation Yrotation
            End Site
            {
              OFFSET 0 0 0
            }
          }
        }
      }
    }
    JOINT rclavicle
    {
      OFFSET 0 0 25.2555
      CHANNELS 3 Zrotation Xrotation Yrotation
      JOINT rhumerus
      {
        OFFSET 0 -15.7019 3.447
        CHANNELS 3 Zrotation Xrotation Yrotation
        JOINT rradius
        {
          OFFSET 0 0 -26.0247
          CHANNELS 3 Zrotation Xrotation Yrotation
          JOINT rhand
          {
            OFFSET 0 0 -20.7467
            CHANNELS 3 Zrotation Xrotation Yrotation
            End Site
            {
              OFFSET 0 0 0
            }
          }
        }
      }
    }
  }
}
MOTION
Frames:	16
Frame Time:	0.0333333
8.39959 86.4571 -18.4473 -89.1417 -10.3813 -84.7863 6.32625 6.04898 -5.3627 6.18533e-015 1.78906e-015 7.21852 6.55875 0.527696 4.57984 -4.88788e-015 4.77083e-015 -22.9465 -4.53083 -7.95202 -5.21331 6.79708e-016 2.14936e-015 3.10516 1.97385 0.249428 7.19922 -2.66936e-014 1.78906e-014 -42.0355 2.33831 -1.40247 4.91245 -13.6445 5.23725 -16.4179 0.0812929 -8.83124 0.0124805 0.717875 18.0304 -11.4363 -33.1304 9.84903 -14.6863 1.81133e-009 1.89971 1.79153 4.07581 9.55765 -0.67786 -6.62167 -18.2957 -20.4483 22.4968 -13.7966 -29.9342 -1.02248e-008 -3.60917 17.6658 
8.45116 86.4652 -18.6305 -89.0866 -9.58802 -84.8753 6.58479 5.88961 -5.30609 3.56149e-015 -2.73329e-015 7.38619 7.0548 0.562746 4.53765 -6.90496e-015 0 -22.8922 -4.23582 -8.09317 -5.38817 5.9415e-016 3.72721e-015 3.10458 2.45603 0.317521 7.36196 -8.89242e-015 5.56597e-015 -41.8702 2.50192 -1.34671 4.93019 -13.2713 5.19227 -16.1711 0.00445945 -8.611 0.000667692 0.446176 17.7666 -10.9409 -33.1679 9.86442 -14.688 -1.91967e-009 2.03356 1.80024 3.56687 9.12208 -0.566199 -6.56967 -19.1172 -25.0557 17.541 -14.2812 -37.9694 4.65929e-008 -4.28594 18.1981 
8.5184 86.4688 -18.8135 -89.0298 -8.87977 -84.9274 6.70579 5.72597 -5.30321 5.25019e-015 -3.27995e-015 7.59187 7.61164 0.596217 4.45246 -5.8974e-015 2.38542e-015 -22.7086 -4.08975 -8.22774 -5.58041 1.40148e-015 3.57812e-015 3.05658 2.98278 0.396669 7.56828 -5.83747e-015 1.8487e-014 -41.9396 2.70527 -1.34627 4.8492 -12.9909 5.29534 -15.5401 -0.0394833 -8.43946 -0.00579473 0.214503 17.6359 -10.622 -33.3404 9.82072 -14.5346 2.2863e-009 2.07825 1.76 3.30943 8.5685 -0.493615 -8.14726 -18.8435 -30.9206 13.7049 -14.2142 -45.1971 1.42464e-007 -5.70203 18.5838 
8.59515 86.4709 -18.9726 -88.9396 -8.2477 -84.9522 7.0937 5.5192 -5.36194 1.78941e-015 -1.3418e-015 7.81711 7.83174 0.598867 4.34547 -8.02315e-015 5.56597e-015 -22.4788 -4.16602 -8.38027 -5.81922 2.31063e-015 1.46604e-015 3.05226 3.65285 0.497662 7.74768 -1.21488e-014 1.98785e-015 -42.1859 3.10478 -1.42031 4.79682 -13.0092 5.43277 -14.8206 -0.100673 -8.28845 -0.0145127 0.313159 17.5075 -10.6769 -33.7166 9.76819 -14.2645 1.32489e-009 1.94886 1.69224 2.94271 7.78799 -0.399106 -10.1508 -17.5656 -37.494 10.3263 -13.0324 -51.0619 -6.86687e-008 -6.95146 18.9635 
8.66737 86.4689 -19.101 -88.8098 -7.93862 -84.9483 7.26004 5.30023 -5.4109 4.7615e-015 3.97569e-016 7.92651 7.95952 0.605359 4.32126 -1.35961e-014 8.74653e-015 -22.3898 -4.31598 -8.55736 -5.97749 -6.39885e-017 1.21756e-015 3.00841 4.08618 0.565482 7.86574 -4.7392e-015 -9.93923e-015 -42.2814 3.3693 -1.64833 4.73227 -13.1338 5.77811 -14.1829 -0.21477 -8.1552 -0.0304663 0.69471 17.4846 -10.8621 -33.9811 9.77302 -14.1353 -3.41473e-009 2.02074 1.70011 2.60109 6.91355 -0.31331 -12.1091 -15.4764 -44.0063 7.79718 -11.4155 -55.3224 7.81829e-008 -6.49765 18.5473 
8.73873 86.4719 -19.177 -88.6584 -7.8871 -84.9311 7.41117 5.07716 -5.49286 4.8675e-015 -3.47873e-016 8.04929 7.87587 0.595673 4.29794 -9.83949e-015 9.54166e-015 -22.2773 -4.38718 -8.75604 -6.0216 3.16817e-015 3.23025e-016 2.93629 4.19077 0.585732 7.94236 -1.91217e-014 6.16232e-015 -42.3145 3.52861 -1.92615 4.70351 -13.4075 6.08324 -13.8955 -0.332801 -8.15386 -0.0472023 1.08859 17.6515 -11.1208 -34.1953 9.8267 -14.0996 -4.17676e-010 2.22994 1.63434 2.27728 6.08262 -0.241432 -13.1938 -14.0829 -49.6124 5.69271 -9.5735 -59.0623 9.02683e-008 -5.34272 18.2732 
8.799 86.478 -19.2305 -88.5453 -8.02772 -84.9139 7.42385 4.91909 -5.60833 4.64111e-015 1.2424e-015 8.19724 7.72681 0.582421 4.28447 -9.00773e-015 3.18055e-015 -22.2093 -4.12281 -8.93397 -5.92535 6.85602e-016 2.26118e-015 2.79736 3.78371 0.537225 8.06935 -1.31899e-014 9.14409e-015 -42.4863 3.6896 -2.19345 4.76697 -13.8201 6.56785 -13.9052 -0.505102 -8.20858 -0.0721189 1.37256 17.9646 -11.4692 -34.23 9.87329 -14.1455 -1.18012e-009 2.30215 1.58061 1.94251 5.38243 -0.182282 -13.555 -13.9012 -53.96 4.57896 -9.05239 -63.0228 -8.31103e-008 -4.2367 17.8001 
8.82611 86.4807 -19.252 -88.4644 -8.33275 -84.9288 7.39009 4.83652 -5.72776 6.3053e-015 8.44835e-016 8.37868 7.45217 0.558023 4.25819 -1.09605e-014 -1.59028e-015 -22.2557 -3.96592 -9.04857 -5.79147 -8.28246e-016 6.70898e-016 2.74717 3.34315 0.47494 8.0764 -7.562e-015 1.53064e-014 -42.3762 3.81682 -2.50718 4.89871 -14.3386 7.03912 -14.0341 -0.731092 -8.2022 -0.104308 1.59379 18.2871 -11.8604 -34.3719 9.92075 -14.1377 2.31312e-009 2.36491 1.55834 1.56517 4.85558 -0.132516 -13.4455 -14.8908 -56.9771 4.01867 -9.58135 -67.1164 7.47867e-008 -3.3414 16.899 
8.84201 86.4759 -19.2407 -88.4052 -8.74846 -84.9676 7.22724 4.79468 -5.78835 -6.75833e-016 4.52235e-015 8.49954 7.22526 0.535103 4.21314 -9.33151e-015 2.38542e-015 -22.1744 -4.07091 -9.11031 -5.65888 -3.17848e-016 6.53505e-015 2.78453 3.06691 0.43322 8.03252 -9.47585e-015 -1.27222e-014 -42.4332 3.86213 -2.71023 4.96967 -14.8927 7.32098 -13.9553 -0.931642 -8.18373 -0.132629 1.79367 18.4396 -12.1837 -34.6391 9.94603 -14.0366 -7.99738e-010 2.43633 1.4826 1.20999 4.47698 -0.0944643 -13.0401 -16.6864 -58.6285 3.65518 -10.7649 -71.1184 -3.00813e-008 -3.15494 15.934 
8.83268 86.4733 -19.2074 -88.379 -9.13037 -84.9996 7.11048 4.80984 -5.7973 2.82216e-015 2.6339e-015 8.50213 6.96508 0.521474 4.26064 2.61402e-015 6.36111e-015 -22.3396 -4.25561 -9.11749 -5.55331 2.46424e-015 -1.54058e-015 2.82143 2.90194 0.406139 7.96024 -1.94584e-014 -1.19271e-015 -42.5943 3.83355 -2.80237 5.053 -15.2449 7.38079 -14.0554 -0.985002 -8.16731 -0.139947 1.92456 18.4722 -12.5442 -34.7853 9.91209 -13.918 3.20657e-009 2.47908 1.40712 0.968108 4.35175 -0.0734663 -12.2763 -18.8319 -59.0965 3.26993 -12.0968 -74.7501 1.45692e-008 -2.98961 15.148 
8.79119 86.4665 -19.1563 -88.3784 -9.43651 -85.0442 7.12671 4.86777 -5.76503 -3.65083e-015 2.93207e-015 8.44648 6.63358 0.500232 4.2932 2.94559e-015 7.15625e-015 -22.3726 -4.3689 -9.0892 -5.46137 -1.59233e-015 0 2.90998 2.74228 0.375196 7.78486 -3.80354e-015 1.35174e-014 -42.4274 3.85926 -2.76835 5.08973 -15.6 7.17764 -14.2346 -0.961191 -8.25494 -0.138019 1.8869 18.4363 -12.7494 -34.8268 9.90531 -13.8883 -3.15291e-009 2.49928 1.40783 0.788649 4.61586 -0.0634704 -11.0401 -21.6237 -58.2273 3.08209 -14.3426 -77.7369 2.04434e-009 -3.80059 14.4898 
8.72471 86.4641 -19.1059 -88.4074 -9.70957 -85.0727 7.01527 4.96853 -5.71508 3.41988e-016 -2.33572e-015 8.32986 6.48573 0.49858 4.3771 -6.37084e-015 9.54166e-015 -22.539 -4.5164 -8.99778 -5.43563 9.8049e-016 -3.42904e-015 3.07492 2.61705 0.350841 7.63023 -3.06626e-014 4.17448e-015 -42.4437 3.85325 -2.68089 5.1779 -15.7842 6.97028 -14.5147 -0.853598 -8.32589 -0.123613 1.74253 18.3177 -12.868 -34.6796 9.96302 -14.0391 -2.91345e-009 2.44666 1.45932 0.6588 5.02516 -0.0577089 -9.14346 -24.2838 -55.9316 3.14999 -17.6043 -79.6871 -2.97887e-008 -5.25512 13.7365 
8.6396 86.4603 -19.0495 -88.448 -10.0088 -85.0902 6.73665 5.09205 -5.64028 3.46241e-015 -1.73937e-015 8.15778 6.48318 0.509683 4.47595 -1.32269e-015 -3.18055e-015 -22.5809 -4.53567 -8.88805 -5.349 -2.21304e-016 4.02539e-015 3.14678 2.34613 0.309408 7.50864 -1.28859e-014 2.127e-014 -42.3683 3.82809 -2.56078 5.26039 -15.882 6.71927 -14.6177 -0.719203 -8.40651 -0.10515 1.43441 18.1626 -12.8297 -34.471 10.0705 -14.2894 -8.85527e-010 2.39758 1.49392 0.585085 5.46107 -0.0556841 -6.52048 -26.7542 -52.0279 3.42387 -20.3889 -80.2557 2.38116e-008 -7.2812 13.028 
8.54529 86.4581 -18.9861 -88.5152 -10.34 -85.1206 6.46475 5.25487 -5.56248 2.96075e-015 1.78906e-015 7.98446 6.43722 0.51769 4.57857 3.3284e-016 7.95139e-016 -22.7139 -4.53294 -8.75085 -5.21443 -2.37531e-015 -2.48481e-016 3.168 2.04388 0.265809 7.40666 1.08293e-014 -1.17283e-014 -42.2923 3.71365 -2.40468 5.36871 -15.9116 6.4626 -14.9094 -0.609164 -8.55398 -0.0906111 0.89858 18.1501 -12.6163 -33.9646 10.1642 -14.6802 3.40745e-009 2.20189 1.47745 0.758449 6.07948 -0.0803304 -3.27213 -28.9706 -46.9522 4.256 -21.8154 -78.676 1.11382e-007 -9.28185 12.4779 
8.44895 86.4615 -18.9039 -88.572 -10.6514 -85.099 6.17252 5.4079 -5.48964 3.31138e-015 -7.45443e-016 7.75281 6.42767 0.533296 4.72301 1.44282e-015 -4.77083e-015 -22.8254 -4.57984 -8.61425 -5.10895 -8.75559e-016 1.44119e-015 3.14628 1.80521 0.232073 7.32318 5.19923e-015 2.18663e-015 -42.1708 3.59138 -2.25938 5.42623 -15.8217 6.26761 -15.3025 -0.468937 -8.71208 -0.0710311 0.356584 18.1282 -12.3963 -33.551 10.2282 -14.9898 2.93082e-009 2.05542 1.47018 0.957873 6.77554 -0.11302 0.445657 -30.2375 -41.3539 6.03397 -22.0361 -74.2657 1.24303e-007 -10.0822 12.0613 
8.36015 86.4631 -18.8236 -88.6729 -10.9023 -85.0569 6.04753 5.5898 -5.46329 6.72569e-015 -2.33572e-015 7.53881 6.34129 0.540937 4.85586 -4.20112e-015 6.36111e-015 -23.1153 -4.65226 -8.43767 -5.03765 1.65568e-015 -1.16786e-015 3.09186 1.64934 0.210294 7.2641 -2.99203e-014 7.15625e-015 -41.9565 3.45486 -2.07578 5.3692 -15.5732 6.01577 -15.4452 -0.258151 -8.87536 -0.0398292 -0.239454 18.1298 -12.0363 -33.0748 10.2603 -15.2963 5.69294e-010 1.96684 1.55515 1.5167 7.46171 -0.197009 3.66764 -30.2389 -35.765 8.57396 -21.5434 -67.6775 -2.71147e-008 -8.36245 12.6298 
